<svg xmlns="http://www.w3.org/2000/svg" version="1.1" width="122.6" height="62.15" viewBox="0 0 122.6 62.15">
  <path d="M22.33 61.98V54.11H19.3V52.1h8.21v2.01h-3.03v7.87h-2.15zm6.85 0V52.1h7.46v1.94h-5.32v2.01h4.67v1.91h-4.67v2.08
    h5.38v1.94h-7.52zm14.1 0.17c-0.95 0-1.84-0.2-2.59-0.68-0.78-0.44-1.4-1.06-1.84-1.84-0.44-0.78-0.65-1.64-0.65-2.56
    v-0.03c0-0.95 0.2-1.81 0.65-2.56 0.44-0.78 1.06-1.4 1.84-1.87 0.78-0.44 1.67-0.68 2.66-0.68 0.89 0 1.64 0.14 2.25
    0.38 0.61 0.27 1.16 0.65 1.67 1.16l-1.4 1.57c-0.41-0.34-0.82-0.61-1.23-0.82-0.38-0.17-0.82-0.27-1.29-0.27-0.82 0-1.5
    0.27-2.08 0.89-0.51 0.58-0.78 1.33-0.78 2.18v0.03c0 0.85 0.24 1.6 0.78 2.22 0.55 0.58 1.23 0.89 2.08 0.89 0.51 0
    0.99-0.1 1.36-0.27 0.38-0.2 0.78-0.48 1.23-0.88l1.4 1.4c-0.55 0.61-1.16 1.06-1.77 1.33-0.62 0.27-1.4 0.41-2.29
    0.41l0 0zm5.8-0.17V52.1h2.18v3.92h3 0.99V52.1h2.18v9.88h-2.18v-3.95h-3.99v3.95h-2.18zm10.73 0V52.1h2.01l4.63 6.1
    v-6.1h2.15v9.88h-1.84l-4.8-6.27v6.27h-2.15zm18.06-0.24c-0.65 0.27-1.36 0.41-2.11 0.41-0.75 0-1.43-0.14-2.08-0.41
    C73 61.5 72.46 61.13 72.01 60.68 71.53 60.2 71.19 59.66 70.92 59.05 70.65 58.4 70.54 57.76 70.54 57.07v-0.03c0-0.71
    0.1-1.36 0.38-1.98 0.27-0.65 0.65-1.19 1.09-1.64 0.48-0.48 1.02-0.82 1.67-1.09 0.68-0.27 1.37-0.41 2.11-0.41 0.99
    0 1.91 0.21 2.69 0.68 0.82 0.44 1.43 1.06 1.88 1.84 0.44 0.78 0.68 1.64 0.68 2.56v0.03c0 0.68-0.14 1.36-0.41
    1.98-0.27 0.65-0.61 1.19-1.09 1.64-0.44 0.47-1.02 0.82-1.67 1.09l0 0zm-3.61-2.01c0.44 0.27 0.95 0.41 1.53 0.41 0.58
    0 1.09-0.14 1.53-0.41 0.48-0.27 0.82-0.65 1.06-1.12 0.27-0.48 0.38-0.99 0.38-1.53v-0.03
    c0-0.85-0.27-1.6-0.85-2.21-0.55-0.58-1.26-0.89-2.15-0.89-0.55 0-1.09 0.14-1.53 0.41-0.44 0.27-0.82 0.65-1.06
    1.12-0.23 0.48-0.37 0.99-0.37 1.53v0.03c0 0.55 0.14 1.09 0.37 1.53 0.27 0.48 0.61 0.85 1.09 1.16l0 0zm8.72 2.25
    V52.1h2.18v7.91h4.91v1.98h-7.09zm15.1-0.24c-0.68 0.27-1.37 0.41-2.11 0.41-0.75 0-1.47-0.14-2.12-0.41C93.2 61.5
    92.66 61.13 92.18 60.68 91.74 60.2 91.36 59.66 91.12 59.05 90.85 58.4 90.71 57.76 90.71 57.07v-0.03c0-0.71
    0.14-1.36 0.41-1.98 0.24-0.65 0.61-1.19 1.09-1.64 0.44-0.48 0.99-0.82 1.67-1.09 0.65-0.27 1.36-0.41 2.11-0.41 0.99
    0 1.88 0.21 2.69 0.68 0.78 0.44 1.43 1.06 1.87 1.84 0.44 0.78 0.65 1.64 0.65 2.56v0.03c0 0.68-0.1 1.36-0.38
    1.98-0.27 0.65-0.65 1.19-1.09 1.64-0.46 0.47-1 0.82-1.65 1.09l0 0zm-3.65-2.01c0.48 0.27 0.99 0.41 1.57 0.41 0.55
    0 1.06-0.14 1.53-0.41 0.44-0.27 0.82-0.65 1.06-1.12 0.24-0.48 0.38-0.99 0.38-1.53v-0.03
    c0-0.85-0.31-1.6-0.85-2.21-0.58-0.58-1.29-0.89-2.15-0.89-0.58 0-1.09 0.14-1.53 0.41-0.48 0.27-0.82 0.65-1.06 1.12
    C93.11 55.96 93 56.47 93 57.01v0.03c0 0.55 0.1 1.09 0.38 1.53 0.23 0.48 0.61 0.85 1.05 1.16l0 0zm13.5 2.42c-0.75
    0-1.46-0.14-2.11-0.37-0.65-0.27-1.19-0.61-1.63-1.06-0.44-0.48-0.82-0.99-1.06-1.64-0.27-0.61-0.41-1.29-0.41-2.01
    v-0.03c0-0.71 0.14-1.36 0.41-1.98 0.27-0.65 0.61-1.19 1.06-1.64 0.48-0.48 1.02-0.82 1.67-1.09 0.65-0.27 1.33-0.41
    2.08-0.41 0.85 0 1.57 0.1 2.15 0.34 0.62 0.2 1.19 0.55 1.74 1.02l-1.4 1.64
    c-0.41-0.34-0.82-0.58-1.19-0.75-0.37-0.17-0.85-0.24-1.4-0.24-0.78 0-1.43 0.31-2.01 0.89-0.55 0.61-0.82 1.33-0.82
    2.18v0.03c0 0.89 0.27 1.67 0.85 2.25 0.55 0.58 1.26 0.89 2.15 0.89 0.82 0 1.5-0.21 2.05-0.58v-1.43h-2.18v-1.87
    h4.29v4.29c-1.24 1.06-2.67 1.57-4.24 1.57l0 0zm8.65-0.17V58.1l-3.78-6h2.56l2.35 3.95 2.39-3.95h2.49l-3.82 5.93
    v3.95h-2.19z"/>
  <path d="M122.6 46 100.72 2H85.32L67.95 29.5c-2 3.52-5.79 5.93-10.03 5.93-6.24 0-11.51-5.27-11.51-11.51 0-2.34
    0.72-4.51 2-6.34-5.44 3.55-9.44 10.13-11.89 16.78 3.89 7.93 12.03 13.41 21.4 13.41 10.34 0 16.89-5.51 22.05-13.72
    L93.03 12.93 101.4 28.68H86.42l-6.48 10.86h27.23l3.44 6.48H122.6zM57.75 12.09c2 0 3.89 0.59 5.58 1.55L69.88 3.27
    C66.33 1.06 62.23 0 57.54 0 40.83 0 27.63 12.58 24.39 27.02L13.47 2H0L19.3 46.01H31.29C32.25 34.94 38.76 12.09 57.75
    12.09z" fill="#cc0000"/>
</svg>
